<svg aria-hidden="true" style="position:absolute;width:0;height:0;overflow:hidden" xmlns="http://www.w3.org/2000/svg">
  <defs>
    <symbol id="icon-youtube" viewBox="0 0 32 32">
      <path d="M28.791 9.604a3.34 3.34 0 0 0-2.349-2.354c-2.088-.573-10.441-.583-10.441-.583s-8.352-.009-10.441.539a3.416 3.416 0 0 0-2.354 2.371c-.551 2.088-.556 6.419-.556 6.419s-.005 4.352.541 6.419a3.341 3.341 0 0 0 2.351 2.353c2.109.573 10.44.583 10.44.583s8.353.009 10.441-.537a3.356 3.356 0 0 0 2.356-2.35c.552-2.087.556-6.416.556-6.416s.027-4.353-.543-6.441zM13.328 20.007l.007-8 6.943 4.007-6.949 3.993z"/>
    </symbol>
    <symbol id="icon-fb" viewBox="0 0 32 32">
      <path d="M29.333 16.405C29.333 8.996 23.364 2.99 16 2.99S2.667 8.996 2.667 16.405c0 6.696 4.876 12.245 11.25 13.252v-9.374h-3.385v-3.878h3.385V13.45c0-3.362 1.991-5.219 5.036-5.219 1.459 0 2.985.262 2.985.262v3.301h-1.681c-1.656 0-2.173 1.034-2.173 2.095v2.516h3.698l-.591 3.878h-3.107v9.374c6.374-1.006 11.25-6.556 11.25-13.252z"/>
    </symbol>
    <symbol id="icon-insta" viewBox="0 0 32 32">
      <path d="M15.998 6.161c3.206 0 3.585.014 4.846.071 1.172.052 1.804.248 2.226.412.558.216.961.478 1.378.895.422.422.679.82.9 1.378.164.422.361 1.059.412 2.226.056 1.266.071 1.645.071 4.847s-.014 3.585-.071 4.847c-.052 1.172-.248 1.804-.412 2.226a3.714 3.714 0 0 1-.895 1.378c-.422.422-.82.679-1.378.9-.422.164-1.06.361-2.226.412-1.266.056-1.645.07-4.847.07s-3.585-.014-4.847-.07c-1.172-.052-1.804-.248-2.226-.412a3.714 3.714 0 0 1-1.378-.895 3.767 3.767 0 0 1-.9-1.378c-.164-.422-.361-1.06-.412-2.226-.056-1.266-.071-1.645-.071-4.847s.014-3.585.071-4.847c.052-1.172.248-1.804.412-2.226.216-.558.478-.961.895-1.378.422-.422.82-.679 1.378-.9.422-.164 1.059-.361 2.226-.412 1.261-.056 1.641-.071 4.847-.071h.001zm0-2.16c-3.258 0-3.665.014-4.945.071-1.275.056-2.151.262-2.91.558a5.847 5.847 0 0 0-2.127 1.387A5.883 5.883 0 0 0 4.629 8.14c-.295.764-.502 1.636-.558 2.91C4.015 12.335 4 12.742 4 15.999s.014 3.665.071 4.945c.056 1.275.262 2.151.558 2.91.31.792.717 1.462 1.387 2.128a5.876 5.876 0 0 0 2.123 1.383c.764.295 1.636.502 2.91.558 1.279.056 1.687.07 4.945.07s3.666-.014 4.945-.07c1.275-.056 2.152-.262 2.91-.558.787-.304 1.458-.717 2.123-1.383s1.078-1.336 1.383-2.123c.295-.764.502-1.636.558-2.91.056-1.279.07-1.687.07-4.945s-.014-3.665-.07-4.945c-.056-1.275-.262-2.151-.558-2.91a5.622 5.622 0 0 0-1.373-2.133 5.876 5.876 0 0 0-2.123-1.383c-.764-.295-1.636-.502-2.91-.558C19.665 4.014 19.257 4 16 4l-.001.001z"/>
      <path d="M15.998 9.836a6.164 6.164 0 1 0 6.163 6.163 6.164 6.164 0 0 0-6.163-6.163zm0 10.161a3.998 3.998 0 1 1 0-7.996 3.998 3.998 0 0 1 0 7.996zM23.843 9.592a1.439 1.439 0 1 1-2.877 0 1.439 1.439 0 0 1 2.877 0z"/>
    </symbol>
    <symbol id="icon-logo" viewBox="0 0 110 32">
      <path d="M16.216.014c.434-.05.936.047 1.354.174.945.288 1.714.904 2.169 1.784.474.902.564 1.957.252 2.927-.397 1.196-1.248 1.798-2.311 2.351l.012 3.489c.759.232 1.498.494 2.187.893 1.585.918 2.669 2.467 3.123 4.23a7.208 7.208 0 0 1-.759 5.46c-.887 1.493-2.3 2.596-3.993 3.018-2.211.553-4.087-.047-5.987-1.176a156.6 156.6 0 0 0-2.489 2.725c.366.864.488 1.771.245 2.689-.237.897-.866 1.666-1.67 2.121-.901.51-1.928.602-2.916.32-.981-.281-1.805-.888-2.284-1.8-.472-.897-.511-1.949-.206-2.907.348-1.089 1.056-1.76 2.052-2.258 1.072-.419 1.959-.281 3.006.096.871-.917 1.692-1.88 2.573-2.789-.968-1.898-1.281-3.515-.778-5.606-1.096-.511-2.152-1.108-3.248-1.62-.586.61-1.302 1.028-2.143 1.169-1.003.169-2.06-.105-2.884-.694a3.671 3.671 0 0 1-1.486-2.493c-.135-.969.12-2.037.741-2.802.64-.789 1.634-1.266 2.637-1.371a3.724 3.724 0 0 1 2.733.836c.976.818 1.259 1.834 1.377 3.045 1.039.637 2.229 1.129 3.312 1.698 1.409-1.665 2.439-2.191 4.492-2.824l.001-3.463a4.782 4.782 0 0 1-1.054-.561A3.712 3.712 0 0 1 12.8 4.174a3.757 3.757 0 0 1 .78-2.781C14.258.542 15.165.155 16.216.016zm4.527 17.224a4.349 4.349 0 1 0-8.664.758 4.349 4.349 0 0 0 8.664-.758zM101.92 11.829c.708.001 1.416.01 2.124.028l-.004 3.743c.545-.424 1.14-.741 1.83-.844a3.504 3.504 0 0 1 2.637.67c.908.687 1.385 1.843 1.524 2.948.175 1.402-.154 2.75-1.02 3.867-.573.554-1.262.941-2.056 1.072-1.165.191-2.088-.216-2.998-.894l-.004.818-2.032-.004-.001-11.403zm3.641 4.904c-.632.21-1.07.509-1.378 1.117-.343.675-.365 1.509-.099 2.212.204.538.585 1.004 1.117 1.244.386.175.75.18 1.165.155.66-.249 1.103-.569 1.401-1.229.312-.689.307-1.52.011-2.214-.227-.533-.631-.963-1.176-1.174-.341-.131-.683-.149-1.042-.111zM41.084 11.807c1.246 3.84 2.84 7.576 4.055 11.426l-2.296.002c-.269-.822-.529-1.752-.939-2.512-.268-.115-.586-.076-.873-.073-1.107.011-2.215.008-3.323-.011-.348.848-.628 1.721-.903 2.595l-2.339-.002c1.221-3.833 2.677-7.617 3.996-11.42.872.019 1.749-.002 2.622-.005zm-1.31 2.839c-.483 1.374-.934 2.768-1.464 4.125l1.681-.001 1.306-.014c-.183-.517-1.25-3.881-1.524-4.11zM89.497 11.832l2.196.013c-.03 2.647-.007 5.298-.007 7.945-.001 1.093.11 2.287-.013 3.365l-.121.083h-2.058l-.004-4.889c-1.645-.046-3.303-.005-4.949-.003l.001 4.894-2.209-.004.009-11.401 2.2.005.001 4.662H89.5l-.003-4.67zM93.015 14.992c.729.021 1.459.013 2.188.017-.009 1.165-.193 4.384.089 5.347.111.38.333.728.693.913.541.278 1.09.117 1.628-.072.238-.266.443-.515.561-.859.386-1.123.18-4.006.174-5.343.694.019 1.391.004 2.085 0-.016.8-.003 1.603-.004 2.404l.011 5.834c-.683.01-1.365.005-2.047-.015l-.063-.074c.01-.173.012-.314-.018-.487-.639.277-1.209.697-1.936.712-.843.017-1.758-.245-2.364-.852-.459-.459-.739-1.076-.883-1.703-.31-1.348-.127-4.332-.113-5.824zM63.498 14.762c1.089-.085 2.224-.008 3.104.725.617.514.816 1.13.883 1.897l-1.968-.002c-.113-.21-.227-.454-.404-.619a1.505 1.505 0 0 0-1.078-.377c-.298.016-.679.135-.865.387-.113.154-.175.311-.132.503.224 1.009 2.79.884 3.607 1.419.52.341.919.951 1.034 1.56a2.292 2.292 0 0 1-.408 1.775c-.627.865-1.593 1.175-2.599 1.329-.931.056-2.011-.194-2.756-.761-.699-.532-.95-1.185-1.045-2.025.663.002 1.326-.005 1.989-.018.039.125.082.246.145.361.289.533.865.651 1.4.808.353-.081.831-.172 1.082-.457.151-.172.204-.471.14-.691-.245-.843-2.703-.943-3.556-1.468-.505-.311-.876-.764-1.011-1.349-.121-.53-.075-1.125.223-1.59.538-.84 1.28-1.185 2.216-1.408zM76.742 14.76c.62-.05 1.227-.047 1.831.117.697.189 1.438.578 1.79 1.239.169.317.3.886.186 1.237-.565.122-1.255.04-1.835.033-.085-.287-.158-.509-.391-.707a1.415 1.415 0 0 0-1.062-.322c-.3.031-.685.178-.852.447-.1.16-.141.325-.078.509.362 1.068 2.535.814 3.38 1.297.538.308.988.848 1.141 1.454.164.65.056 1.372-.319 1.931-.56.835-1.449 1.149-2.388 1.331-.922.114-1.989-.082-2.759-.613-.791-.545-1.028-1.229-1.206-2.123l1.973-.015c.12.302.229.537.485.746.341.279.745.406 1.184.347.341-.045.676-.202.88-.487.133-.187.2-.414.136-.642-.247-.878-2.426-.823-3.29-1.288-.584-.315-1.047-.838-1.231-1.481a2.017 2.017 0 0 1 .196-1.599c.477-.81 1.353-1.206 2.231-1.409zM52.453 12.728c.655.023 1.315.009 1.97.011-.007.74.004 1.48.032 2.219l1.944.001-.004 1.694-1.851-.001c.001 1.066-.243 3.817.246 4.641.382.301 1.145.189 1.609.183l-.007 1.404c.004.145.004.218-.07.344-.259.124-.524.152-.81.154-.752.007-1.791-.129-2.331-.693-1.086-1.131-.739-4.457-.734-6.035l-1.254.002.004-1.698 1.249.008.007-2.236zM69.352 12.719l1.934.011c-.015.741.016 1.485.03 2.226l1.975-.004-.003 1.702-1.859-.001c.023 1.015-.226 3.85.234 4.617.494.295 1.113.216 1.669.215-.007.489.003.979.005 1.469l-.023.186c-.191.202-.486.194-.747.2-.794.019-1.891-.107-2.467-.71-1.075-1.126-.74-4.405-.731-5.978l-1.323.001c-.017-.564-.01-1.129-.015-1.692l1.318.007.004-2.249zM27.632 11.453c.102-.005.2-.007.302.008.316.046.628.198.802.476.185.294.21.687.235 1.028.125 1.688.032 3.444.032 5.138 0 1.384.153 3.26-.104 4.592-.081.419-.359.619-.691.846-.127.015-.259.033-.387.026a1.043 1.043 0 0 1-.74-.361c-.183-.216-.177-.648-.193-.919-.116-1.942-.018-3.946-.016-5.893.001-1.107-.151-3.225.082-4.213.083-.353.402-.539.68-.727zM50.056 14.929l.278-.003c.329.368.166 1.535.155 2.018-.696-.007-1.354-.035-1.899.471-1.023.949-.678 4.425-.688 5.82-.548-.005-1.617.195-2.035-.154l-.022-.346c.01-2.586-.055-5.169-.038-7.754.664.021 1.33.007 1.994.003l-.023 1.142c.123-.177.246-.366.389-.527.503-.568 1.186-.619 1.891-.669zM57.608 14.963l2.086.001.005 8.275-2.11-.003.019-8.273zM24.719 14.164c.342.063.645.192.845.489.308.459.316 4.955.162 5.596-.084.351-.388.522-.676.691-.329-.02-.763-.049-.983-.335-.328-.425-.3-5.203-.114-5.802.108-.348.466-.495.765-.639zM58.513 11.554a1.153 1.153 0 1 1 .27 2.29 1.153 1.153 0 0 1-.27-2.29z"/>
    </symbol>
  </defs>
</svg>
