<svg aria-hidden="true" style="position:absolute;width:0;height:0;overflow:hidden" xmlns="http://www.w3.org/2000/svg">
  <defs>
    <symbol id="icon-logo" viewBox="0 0 75 32">
      <path d="M19.458 9.456c.373-.043.806.041 1.166.15a3.07 3.07 0 0 1 1.868 1.537c.408.777.486 1.686.217 2.521-.342 1.03-1.075 1.548-1.989 2.024l.01 3.004c.654.199 1.29.425 1.884.769 1.364.791 2.298 2.125 2.689 3.642a6.2 6.2 0 0 1-.654 4.701c-.764 1.286-1.981 2.235-3.438 2.599-1.904.476-3.519-.039-5.155-1.012-.723.773-1.438 1.555-2.143 2.346.315.744.42 1.525.211 2.315-.204.773-.746 1.435-1.438 1.826-.776.439-1.66.519-2.511.275-.844-.242-1.554-.764-1.967-1.55-.406-.773-.44-1.678-.177-2.503.3-.938.91-1.515 1.767-1.944.923-.361 1.687-.242 2.589.082.751-.79 1.457-1.62 2.215-2.403-.833-1.634-1.103-3.026-.67-4.827-.943-.44-1.853-.953-2.797-1.394-.504.525-1.121.885-1.845 1.007-.863.145-1.774-.09-2.483-.597a3.166 3.166 0 0 1-1.28-2.148c-.117-.835.103-1.754.638-2.413.551-.68 1.407-1.09 2.271-1.181a3.205 3.205 0 0 1 2.353.72c.841.704 1.084 1.58 1.186 2.623.895.549 1.919.971 2.852 1.461 1.213-1.434 2.1-1.886 3.868-2.431l.001-2.982a4.164 4.164 0 0 1-.908-.483 3.195 3.195 0 0 1-1.269-2.154 3.237 3.237 0 0 1 .672-2.395c.584-.733 1.365-1.066 2.27-1.186zm3.899 14.833a3.746 3.746 0 1 0-7.462.657 3.746 3.746 0 0 0 7.462-.657zM40.872 19.612c1.073 3.307 2.446 6.523 3.492 9.839l-1.977.002c-.232-.708-.455-1.509-.809-2.163-.231-.099-.505-.066-.752-.063-.954.009-1.908.007-2.861-.01-.299.731-.541 1.482-.778 2.234l-2.014-.002c1.052-3.301 2.306-6.559 3.441-9.834.751.016 1.506-.001 2.258-.004zm-1.127 2.444c-.416 1.184-.805 2.383-1.26 3.552l1.448-.001 1.125-.012c-.158-.445-1.076-3.342-1.313-3.539zM60.174 22.156c.938-.073 1.915-.007 2.673.624.531.442.703.973.76 1.634l-1.695-.002c-.097-.181-.195-.391-.348-.533a1.303 1.303 0 0 0-.928-.325c-.257.014-.585.116-.745.334-.097.132-.15.268-.113.433.193.869 2.402.762 3.106 1.221.447.293.791.819.891 1.343a1.972 1.972 0 0 1-.352 1.529c-.54.744-1.372 1.012-2.238 1.145-.802.049-1.731-.167-2.373-.655-.602-.458-.818-1.02-.9-1.744.571.001 1.142-.004 1.713-.016.033.108.071.211.125.311.249.459.745.561 1.205.696.304-.07.716-.148.931-.393a.685.685 0 0 0 .121-.595c-.211-.726-2.328-.812-3.062-1.264-.435-.268-.755-.658-.87-1.162-.105-.456-.065-.969.192-1.369.463-.723 1.103-1.021 1.908-1.213zM71.578 22.154c.534-.043 1.057-.04 1.577.1.6.163 1.238.498 1.541 1.066.146.273.258.763.16 1.066-.486.105-1.081.034-1.58.028-.074-.247-.136-.438-.337-.609a1.223 1.223 0 0 0-.914-.278c-.258.026-.59.154-.734.385-.086.138-.121.279-.067.438.312.919 2.183.701 2.911 1.116.463.265.851.731.982 1.252a2.098 2.098 0 0 1-.275 1.663c-.482.719-1.248.989-2.056 1.146-.793.098-1.712-.07-2.376-.528-.681-.469-.885-1.058-1.038-1.828l1.699-.013c.103.26.197.462.417.642a1.3 1.3 0 0 0 1.019.299c.293-.039.582-.174.758-.419a.646.646 0 0 0 .117-.553c-.213-.756-2.089-.709-2.833-1.11-.503-.271-.901-.722-1.06-1.275a1.735 1.735 0 0 1 .169-1.377c.411-.697 1.165-1.038 1.921-1.213zM50.663 20.405c.564.019 1.132.007 1.697.01-.006.637.003 1.274.028 1.911l1.674.001-.004 1.459-1.594-.001c.001.918-.209 3.287.212 3.996.329.259.986.162 1.386.158l-.006 1.209c.004.125.003.188-.06.296-.223.107-.451.131-.697.133-.648.006-1.542-.111-2.008-.597-.935-.974-.636-3.838-.632-5.197l-1.08.002.003-1.462 1.076.007.006-1.925zM65.214 20.397l1.665.009c-.013.638.014 1.279.026 1.917l1.701-.003-.003 1.466-1.601-.001c.02.874-.195 3.315.201 3.976.425.254.958.186 1.437.185-.006.421.003.843.004 1.265l-.02.16c-.165.174-.418.167-.643.172-.684.016-1.629-.092-2.125-.611-.926-.969-.638-3.794-.629-5.148l-1.139.001c-.014-.485-.009-.972-.013-1.457l1.135.006.003-1.937zM29.289 19.306c.088-.004.173-.006.26.007.272.039.54.171.69.41.159.254.181.591.203.885.108 1.454.028 2.966.027 4.425 0 1.191.132 2.807-.09 3.954-.07.361-.309.533-.595.728-.109.013-.223.028-.333.022a.896.896 0 0 1-.637-.311c-.157-.186-.153-.558-.166-.791-.1-1.672-.015-3.398-.014-5.075.001-.953-.13-2.777.07-3.628.072-.304.346-.464.585-.626zM48.599 22.3l.239-.003c.284.317.143 1.322.134 1.738-.599-.006-1.166-.03-1.635.405-.881.817-.584 3.811-.593 5.012-.472-.004-1.392.168-1.753-.132l-.019-.298c.009-2.227-.047-4.451-.033-6.677.572.018 1.145.006 1.717.003l-.02.983c.106-.152.211-.315.334-.454.433-.489 1.021-.533 1.628-.576zM55.101 22.329l1.796.001.004 7.126-1.817-.003.016-7.124zM26.781 21.642c.295.054.556.165.728.421.265.395.272 4.267.139 4.819-.073.302-.334.449-.582.595-.284-.017-.657-.042-.846-.288-.282-.366-.259-4.48-.098-4.996.093-.3.401-.427.659-.551zM55.881 19.394a.993.993 0 1 1 .233 1.974.993.993 0 0 1-.233-1.975z"/>
    </symbol>
    <symbol id="icon-youtube" viewBox="0 0 32 32">
      <path d="M28.791 9.604a3.34 3.34 0 0 0-2.349-2.354c-2.088-.573-10.441-.583-10.441-.583s-8.352-.009-10.441.539a3.416 3.416 0 0 0-2.354 2.371c-.551 2.088-.556 6.419-.556 6.419s-.005 4.352.541 6.419a3.341 3.341 0 0 0 2.351 2.353c2.109.573 10.44.583 10.44.583s8.353.009 10.441-.537a3.356 3.356 0 0 0 2.356-2.35c.552-2.087.556-6.416.556-6.416s.027-4.353-.543-6.441zM13.328 20.007l.007-8 6.943 4.007-6.949 3.993z"/>
    </symbol>
    <symbol id="icon-fb" viewBox="0 0 32 32">
      <path d="M29.333 16.405C29.333 8.996 23.364 2.99 16 2.99S2.667 8.996 2.667 16.405c0 6.696 4.876 12.245 11.25 13.252v-9.374h-3.385v-3.878h3.385V13.45c0-3.362 1.991-5.219 5.036-5.219 1.459 0 2.985.262 2.985.262v3.301h-1.681c-1.656 0-2.173 1.034-2.173 2.095v2.516h3.698l-.591 3.878h-3.107v9.374c6.374-1.006 11.25-6.556 11.25-13.252z"/>
    </symbol>
    <symbol id="icon-insta" viewBox="0 0 32 32">
      <path d="M15.998 6.161c3.206 0 3.585.014 4.846.071 1.172.052 1.804.248 2.226.412.558.216.961.478 1.378.895.422.422.679.82.9 1.378.164.422.361 1.059.412 2.226.056 1.266.071 1.645.071 4.847s-.014 3.585-.071 4.847c-.052 1.172-.248 1.804-.412 2.226a3.714 3.714 0 0 1-.895 1.378c-.422.422-.82.679-1.378.9-.422.164-1.06.361-2.226.412-1.266.056-1.645.07-4.847.07s-3.585-.014-4.847-.07c-1.172-.052-1.804-.248-2.226-.412a3.714 3.714 0 0 1-1.378-.895 3.767 3.767 0 0 1-.9-1.378c-.164-.422-.361-1.06-.412-2.226-.056-1.266-.071-1.645-.071-4.847s.014-3.585.071-4.847c.052-1.172.248-1.804.412-2.226.216-.558.478-.961.895-1.378.422-.422.82-.679 1.378-.9.422-.164 1.059-.361 2.226-.412 1.261-.056 1.641-.071 4.847-.071h.001zm0-2.16c-3.258 0-3.665.014-4.945.071-1.275.056-2.151.262-2.91.558a5.847 5.847 0 0 0-2.127 1.387A5.883 5.883 0 0 0 4.629 8.14c-.295.764-.502 1.636-.558 2.91C4.015 12.335 4 12.742 4 15.999s.014 3.665.071 4.945c.056 1.275.262 2.151.558 2.91.31.792.717 1.462 1.387 2.128a5.876 5.876 0 0 0 2.123 1.383c.764.295 1.636.502 2.91.558 1.279.056 1.687.07 4.945.07s3.666-.014 4.945-.07c1.275-.056 2.152-.262 2.91-.558.787-.304 1.458-.717 2.123-1.383s1.078-1.336 1.383-2.123c.295-.764.502-1.636.558-2.91.056-1.279.07-1.687.07-4.945s-.014-3.665-.07-4.945c-.056-1.275-.262-2.151-.558-2.91a5.622 5.622 0 0 0-1.373-2.133 5.876 5.876 0 0 0-2.123-1.383c-.764-.295-1.636-.502-2.91-.558C19.665 4.014 19.257 4 16 4l-.001.001z"/>
      <path d="M15.998 9.836a6.164 6.164 0 1 0 6.163 6.163 6.164 6.164 0 0 0-6.163-6.163zm0 10.161a3.998 3.998 0 1 1 0-7.996 3.998 3.998 0 0 1 0 7.996zM23.843 9.592a1.439 1.439 0 1 1-2.877 0 1.439 1.439 0 0 1 2.877 0z"/>
    </symbol>
  </defs>
</svg>